# Blender 3.5.1
# www.blender.org
mtllib crystal.mtl
o Cube
v 0.000000 1.000000 -0.000000
v 0.000000 -1.000000 0.000000
v 0.652667 -0.000000 -0.652667
v -0.652667 0.000000 0.652667
v 0.652667 0.000000 0.652667
v -0.652667 -0.000000 -0.652667
vn -0.0000 0.5466 0.8374
vn -0.8374 0.5466 -0.0000
vn 0.8374 0.5466 -0.0000
vn -0.0000 0.5466 -0.8374
vn -0.0000 -0.5466 -0.8374
vn 0.8374 -0.5466 -0.0000
vn -0.8374 -0.5466 -0.0000
vn -0.0000 -0.5466 0.8374
vt 0.625000 1.000000
vt 0.625000 0.250000
vt 0.625000 0.750000
vt 0.625000 0.500000
vt 0.375000 0.250000
vt 0.375000 0.500000
vt 0.375000 0.000000
vt 0.375000 0.750000
vt 0.500000 0.500000
vt 0.500000 0.000000
vt 0.500000 1.000000
vt 0.500000 0.750000
vt 0.500000 0.250000
s 0
usemtl Material.001
f 5/12/1 1/1/1 4/11/1
f 4/10/2 1/2/2 6/13/2
f 3/9/3 1/3/3 5/12/3
f 6/13/4 1/4/4 3/9/4
f 2/5/5 6/13/5 3/9/5
f 2/6/6 3/9/6 5/12/6
f 2/7/7 4/10/7 6/13/7
f 2/8/8 5/12/8 4/11/8
